<svg width="41" height="43" viewBox="0 0 41 43" fill="none" xmlns="http://www.w3.org/2000/svg">
<path d="M6.34541 41.7946C6.36043 41.795 6.37521 41.7982 6.3889 41.8041C6.40259 41.81 6.41491 41.8184 6.42515 41.8289L6.63092 42.0446C6.4712 42.2191 6.27378 42.3588 6.05219 42.4539C5.79269 42.5577 5.51302 42.6078 5.23168 42.6009C4.9673 42.6061 4.70464 42.5594 4.46003 42.4637C4.23939 42.3758 4.04115 42.2437 3.87873 42.0764C3.71297 41.9029 3.58529 41.6996 3.5032 41.4784C3.4133 41.2318 3.36892 40.9723 3.37202 40.7113C3.36837 40.4486 3.41635 40.1875 3.51349 39.9417C3.60334 39.7191 3.73888 39.5158 3.91217 39.3436C4.08781 39.1749 4.29791 39.0423 4.52948 38.9539C4.78282 38.8604 5.05259 38.8138 5.32427 38.8167C5.57664 38.8108 5.82767 38.8534 6.06248 38.9417C6.26619 39.0259 6.45324 39.1428 6.61549 39.2873L6.44315 39.5177C6.43125 39.5339 6.41645 39.548 6.39943 39.5593C6.37909 39.5726 6.35452 39.5787 6.32998 39.5765C6.30328 39.5747 6.27755 39.5663 6.25539 39.552L6.16279 39.4907L6.03418 39.4123C5.97867 39.3832 5.92108 39.3578 5.86185 39.3363C5.78556 39.3103 5.70732 39.2898 5.62779 39.275C5.52685 39.2573 5.42433 39.2491 5.3217 39.2505C5.12606 39.2482 4.93191 39.2832 4.75069 39.3534C4.58168 39.4185 4.42912 39.5171 4.30313 39.6427C4.17488 39.7762 4.07604 39.9329 4.01248 40.1034C3.94004 40.2985 3.90434 40.5043 3.90702 40.7113C3.90394 40.9214 3.93963 41.1305 4.01248 41.3289C4.07525 41.498 4.17225 41.6537 4.29799 41.7872C4.4158 41.9117 4.56182 42.0089 4.72497 42.0715C4.89286 42.1379 5.07308 42.1712 5.25483 42.1696C5.35981 42.1711 5.46475 42.1646 5.56863 42.15C5.73824 42.1302 5.90094 42.0741 6.04447 41.9858C6.11647 41.9405 6.18443 41.8897 6.24767 41.8338C6.27411 41.8098 6.30889 41.7958 6.34541 41.7946Z" fill="#AFB1B8"/>
<path d="M12.2871 40.7108C12.2903 40.9709 12.2432 41.2292 12.1482 41.473C12.0644 41.6941 11.9323 41.8958 11.7608 42.0648C11.5892 42.2338 11.382 42.3662 11.1528 42.4533C10.6492 42.6363 10.0925 42.6363 9.58896 42.4533C9.36125 42.3648 9.15539 42.2321 8.98452 42.0636C8.81305 41.8916 8.68004 41.6882 8.59356 41.4657C8.40827 40.972 8.40827 40.4325 8.59356 39.9388C8.6813 39.7162 8.81414 39.5122 8.98452 39.3384C9.15685 39.1752 9.3626 39.0476 9.58896 38.9635C10.0919 38.7772 10.6499 38.7772 11.1528 38.9635C11.3813 39.0519 11.588 39.1846 11.7598 39.3531C11.9292 39.5235 12.0612 39.7243 12.1482 39.9437C12.2435 40.1892 12.2906 40.4492 12.2871 40.7108ZM11.747 40.7108C11.751 40.5028 11.718 40.2956 11.6492 40.0981C11.5916 39.929 11.4979 39.7729 11.374 39.6399C11.2534 39.5139 11.1049 39.4152 10.9393 39.3507C10.5734 39.2167 10.1684 39.2167 9.80245 39.3507C9.63684 39.4152 9.48836 39.5139 9.36776 39.6399C9.24215 39.7722 9.14747 39.9284 9.08997 40.0981C8.9591 40.4971 8.9591 40.9246 9.08997 41.3235C9.14803 41.4931 9.24265 41.6492 9.36776 41.7818C9.48851 41.907 9.637 42.0049 9.80245 42.0685C10.169 42.1991 10.5728 42.1991 10.9393 42.0685C11.1048 42.0049 11.2533 41.907 11.374 41.7818C11.4974 41.6484 11.591 41.4925 11.6492 41.3235C11.7183 41.1261 11.7513 40.9189 11.747 40.7108Z" fill="#AFB1B8"/>
<path d="M16.3408 41.3532L16.3948 41.4904C16.4154 41.4414 16.4334 41.3973 16.4539 41.3532C16.4736 41.3071 16.4959 41.2621 16.5208 41.2184L17.8352 38.942C17.8609 38.9028 17.884 38.8783 17.9098 38.8709C17.9447 38.8608 17.9813 38.8566 18.0178 38.8587H18.4062V42.5613H17.9458V39.8388C17.9458 39.8045 17.9458 39.7653 17.9458 39.7237C17.9433 39.6812 17.9433 39.6387 17.9458 39.5962L16.6237 41.9046C16.6069 41.9391 16.58 41.9684 16.5463 41.9888C16.5125 42.0092 16.4733 42.02 16.4334 42.0197H16.3588C16.3187 42.0203 16.2794 42.0097 16.2456 41.9892C16.2118 41.9687 16.185 41.9393 16.1684 41.9046L14.8078 39.5815C14.8078 39.6256 14.8078 39.6698 14.8078 39.7139C14.8078 39.758 14.8078 39.7972 14.8078 39.8315V42.5539H14.3628V38.8587H14.7512C14.7877 38.8566 14.8243 38.8608 14.8592 38.8709C14.8911 38.886 14.9165 38.9111 14.9312 38.942L16.2739 41.2209C16.3003 41.263 16.3227 41.3073 16.3408 41.3532Z" fill="#AFB1B8"/>
<path d="M21.2871 41.1692V42.5562H20.7727V38.8585H21.9199C22.1364 38.8546 22.3524 38.8818 22.5603 38.9394C22.7268 38.9843 22.8812 39.0629 23.013 39.1697C23.1273 39.2699 23.2154 39.394 23.2703 39.5324C23.331 39.6832 23.3607 39.8438 23.3577 40.0053C23.36 40.1675 23.3276 40.3284 23.2625 40.4782C23.2007 40.6201 23.1057 40.7466 22.9847 40.8482C22.8528 40.9595 22.6976 41.043 22.5295 41.0933C22.3292 41.1542 22.1198 41.1832 21.9096 41.179L21.2871 41.1692ZM21.2871 40.7723H21.9096C22.0448 40.7739 22.1794 40.7549 22.3083 40.7159C22.4146 40.6818 22.5126 40.6277 22.5964 40.5566C22.6736 40.4888 22.7335 40.405 22.7713 40.3116C22.8134 40.2128 22.8344 40.107 22.833 40.0004C22.839 39.8976 22.8214 39.7948 22.7814 39.6992C22.7414 39.6035 22.68 39.5174 22.6015 39.4466C22.405 39.3004 22.1582 39.2296 21.9096 39.2481H21.2871V40.7723Z" fill="#AFB1B8"/>
<path d="M28.201 42.5612H27.7946C27.7538 42.5626 27.7138 42.5505 27.6814 42.5268C27.6522 42.5038 27.6293 42.4744 27.6145 42.4411L27.2647 41.5466H25.508L25.1453 42.4411C25.132 42.4738 25.1098 42.5025 25.081 42.5244C25.0483 42.5495 25.0072 42.5625 24.9652 42.5612H24.5588L26.1021 38.8582H26.6371L28.201 42.5612ZM25.6546 41.1863H27.1053L26.4931 39.6791C26.4463 39.5658 26.4076 39.4495 26.3773 39.3311L26.3182 39.5247C26.3002 39.5836 26.2796 39.6375 26.2616 39.6816L25.6546 41.1863Z" fill="#AFB1B8"/>
<path d="M30.4233 38.8754C30.4541 38.8915 30.4805 38.9141 30.5005 38.9416L32.7511 41.7329C32.7511 41.6887 32.7511 41.6446 32.7511 41.603C32.7511 41.5613 32.7511 41.5197 32.7511 41.4804V38.8582H33.2115V42.5612H32.9543C32.9178 42.5622 32.8816 42.5547 32.8489 42.5391C32.8171 42.5215 32.7892 42.4982 32.7666 42.4705L30.5185 39.6817C30.521 39.7241 30.521 39.7666 30.5185 39.8091C30.5185 39.8508 30.5185 39.8875 30.5185 39.9218V42.5612H30.0581V38.8582H30.3308C30.3626 38.8574 30.3942 38.8632 30.4233 38.8754Z" fill="#AFB1B8"/>
<path d="M37.0028 41.0884V42.5588H36.4883V41.0884L35.0659 38.8584H35.5263C35.566 38.8561 35.6052 38.8674 35.6369 38.8902C35.6649 38.914 35.6884 38.9422 35.7064 38.9735L36.5964 40.4121C36.6324 40.4733 36.6632 40.5297 36.689 40.5836C36.7147 40.6375 36.7353 40.689 36.7533 40.7405L36.8201 40.5812C36.8451 40.5229 36.8743 40.4664 36.9076 40.4121L37.7847 38.9637C37.8031 38.9348 37.8256 38.9084 37.8516 38.8853C37.8821 38.8599 37.9217 38.8467 37.9622 38.8486H38.4277L37.0028 41.0884Z" fill="#AFB1B8"/>
<path d="M16.0862 32.6443C16.31 32.6712 16.5363 32.6933 16.7652 32.7129C20.2358 31.2337 23.1718 28.8127 25.2062 25.7526C27.2406 22.6924 28.2832 19.1289 28.2036 15.5073L24.3788 11.8633C25.1565 15.7191 24.7927 19.705 23.3282 23.3751C21.8636 27.0452 19.3561 30.2546 16.0862 32.6443Z" fill="#AFB1B8"/>
<path d="M14.7205 32.4748L14.8233 32.4944C18.3176 30.1132 20.9816 26.788 22.471 22.9488C23.9604 19.1097 24.2065 14.9331 23.1777 10.9592L17.7299 5.76904C19.9333 10.0353 20.8203 14.8098 20.2876 19.5374C19.7548 24.265 17.8243 28.7514 14.7205 32.4748Z" fill="#AFB1B8"/>
<path d="M33.1962 19.7861C32.2706 23.7654 30.0228 27.3541 26.7864 30.0196C25.8412 30.8023 24.8217 31.4996 23.741 32.1025C26.3763 31.3646 28.7986 30.0598 30.821 28.289C32.8434 26.5181 34.4119 24.3284 35.4056 21.8887L33.1962 19.7861Z" fill="#AFB1B8"/>
<path d="M32.3292 19.2002L29.1835 16.2031C29.1233 19.6201 28.1037 22.9594 26.2306 25.8739C24.3575 28.7885 21.6993 31.1718 18.5322 32.7764H18.5477C19.2534 32.7761 19.9586 32.736 20.6594 32.6563C23.6192 31.5053 26.2339 29.6742 28.2702 27.3262C30.3064 24.9782 31.7009 22.1865 32.3292 19.2002Z" fill="#AFB1B8"/>
<path d="M15.1757 3.5803L11.4229 0C8.06808 1.23513 5.18278 3.40643 3.14464 6.22973C1.1065 9.05304 0.0104686 12.3968 0 15.8234H0C0.0125737 19.6097 1.3502 23.2838 3.80116 26.2643C6.25213 29.2448 9.67642 31.3614 13.5321 32.2791C16.974 28.2838 18.9892 23.347 19.2847 18.186C19.5803 13.025 18.1409 7.90862 15.1757 3.5803Z" fill="#AFB1B8"/>
<path d="M41 18.649C40.9864 14.1568 39.1073 9.85223 35.7732 6.67574C32.4391 3.49924 27.921 1.70898 23.2059 1.69605C21.0271 1.6939 18.8668 2.07696 16.8347 2.82576L39.8117 24.7166C40.5984 22.7815 41.0014 20.7241 41 18.649Z" fill="#AFB1B8"/>
</svg>
